<svg xmlns="http://www.w3.org/2000/svg" width="354" height="407" viewBox="0 0 354 407" version="1.1"><path d="M 175.496 1.514 C 108.911 10.935, 51.349 52.419, 21.128 112.765 C 6.776 141.424, -0.018 170.716, 0.018 203.784 C 0.054 235.933, 5.962 262.300, 19.450 290.500 C 26.813 305.895, 31.865 314.318, 41.041 326.500 C 73.531 369.635, 121.589 397.737, 176.117 405.488 C 189.844 407.439, 216.933 407.418, 231.073 405.446 C 272.145 399.717, 309.433 382.249, 340.997 353.949 C 351.752 344.305, 354 340.920, 354 334.364 C 354 323.566, 343.451 316.217, 333.424 320.029 C 331.935 320.595, 327.206 324.361, 322.915 328.398 C 298.617 351.256, 270.503 365.904, 237 373.161 C 227.787 375.157, 223.681 375.436, 203.500 375.436 C 183.319 375.436, 179.213 375.157, 170 373.161 C 99.596 357.911, 49.226 307.500, 33.827 236.880 C 31.843 227.778, 31.564 223.668, 31.564 203.500 C 31.564 183.319, 31.843 179.213, 33.839 170 C 49.016 99.936, 100.053 48.904, 170 33.854 C 179.176 31.879, 183.400 31.594, 203.500 31.589 C 223.205 31.583, 227.964 31.890, 236.718 33.731 C 247.737 36.047, 250.671 35.795, 255.882 32.084 C 258.849 29.971, 262 23.642, 262 19.795 C 262 16.073, 257.999 9.163, 254.643 7.088 C 252.875 5.996, 246.269 4.119, 239.964 2.918 C 225.146 0.096, 190.805 -0.652, 175.496 1.514 M 184 57.441 C 150.949 62.199, 122.878 76.175, 99.517 99.502 C 62.246 136.718, 47.841 189.466, 61.006 240.524 C 67.775 266.774, 80.281 288.428, 99.978 308 C 120.833 328.724, 145.171 341.691, 175.435 348.204 C 183.514 349.942, 188.953 350.379, 203 350.418 C 222.262 350.471, 224.319 349.975, 229.287 344.071 C 235.318 336.903, 232.770 325.654, 224.126 321.293 C 220.147 319.286, 218.747 319.137, 208.626 319.643 C 194.588 320.345, 180.723 318.327, 166.169 313.463 C 124.892 299.669, 95.059 263.889, 88.488 220.295 C 86.630 207.967, 86.622 199.089, 88.457 186.916 C 95.861 137.800, 131.616 100.068, 180.893 89.370 C 185.834 88.298, 194.230 87.636, 204.848 87.482 C 222.972 87.219, 224.056 86.877, 228.839 79.908 C 233.377 73.296, 230.234 62.241, 222.710 58.350 C 218.417 56.130, 196.654 55.619, 184 57.441 M 189.500 113.578 C 177.727 116.323, 175.032 117.375, 172.211 120.329 C 166.188 126.635, 166.247 135.981, 172.345 141.805 C 176.850 146.107, 181.415 147.091, 189.161 145.430 C 210.267 140.903, 230.868 146.771, 245.603 161.506 C 253.505 169.409, 259.857 180.818, 261.910 190.799 C 267.403 217.504, 253.914 245.394, 230 256.775 C 219.973 261.547, 213.678 263.005, 203.201 262.985 C 188.107 262.956, 174.462 257.649, 162.855 247.292 C 159.509 244.306, 155.669 241.444, 154.321 240.932 C 142.875 236.580, 130.966 247.732, 134.171 259.799 C 136.230 267.552, 154.863 281.967, 171 288.291 C 185.423 293.943, 206.139 295.641, 221.631 292.441 C 258.747 284.775, 286.988 255.167, 293.054 217.563 C 294.543 208.337, 293.762 188.951, 291.586 181.070 C 285.992 160.815, 273.946 142.822, 258.134 131.100 C 250.082 125.130, 235.267 117.942, 226 115.507 C 219.721 113.858, 194.106 112.504, 189.500 113.578 M 193 174.876 C 184.045 177.822, 177.426 183.655, 173.626 191.949 C 170.618 198.515, 170.690 209.856, 173.780 216.127 C 185.113 239.131, 216.340 239.236, 228.040 216.310 C 230 212.470, 230.495 209.987, 230.497 204 C 230.502 191.752, 224.803 182.528, 213.722 176.848 C 209.152 174.505, 197.497 173.396, 193 174.876" stroke="none" fill="black" fill-rule="evenodd"/></svg>